<?xml version="1.0" encoding="utf-8" standalone="no"?>
<!DOCTYPE svg PUBLIC "-//W3C//DTD SVG 1.1//EN"
  "http://www.w3.org/Graphics/SVG/1.1/DTD/svg11.dtd">
<svg xmlns:xlink="http://www.w3.org/1999/xlink" width="764.513953pt" height="351.729687pt" viewBox="0 0 764.513953 351.729687" xmlns="http://www.w3.org/2000/svg" version="1.1">
 <metadata>
  <rdf:RDF xmlns:dc="http://purl.org/dc/elements/1.1/" xmlns:cc="http://creativecommons.org/ns#" xmlns:rdf="http://www.w3.org/1999/02/22-rdf-syntax-ns#">
   <cc:Work>
    <dc:type rdf:resource="http://purl.org/dc/dcmitype/StillImage"/>
    <dc:date>2025-12-01T16:28:55.656983</dc:date>
    <dc:format>image/svg+xml</dc:format>
    <dc:creator>
     <cc:Agent>
      <dc:title>Matplotlib v3.10.7, https://matplotlib.org/</dc:title>
     </cc:Agent>
    </dc:creator>
   </cc:Work>
  </rdf:RDF>
 </metadata>
 <defs>
  <style type="text/css">*{stroke-linejoin: round; stroke-linecap: butt}</style>
 </defs>
 <g id="figure_1">
  <g id="patch_1">
   <path d="M 0 351.729687 
L 764.513953 351.729687 
L 764.513953 0 
L 0 0 
z
" style="fill: #121212"/>
  </g>
  <g id="axes_1">
   <g id="patch_2">
    <path d="M 44.555937 312.237812 
L 376.636811 312.237812 
L 376.636811 23.837812 
L 44.555937 23.837812 
z
"/>
   </g>
   <g id="matplotlib.axis_1">
    <g id="xtick_1">
     <g id="line2d_1">
      <path d="M 58.408888 312.237812 
L 58.408888 23.837812 
" clip-path="url(#p4a72709b1b)" style="fill: none; stroke: #444444; stroke-width: 0.8; stroke-linecap: square"/>
     </g>
     <g id="line2d_2">
      <defs>
       <path id="m039e3e78f8" d="M 0 0 
L 0 3.5 
" style="stroke: #ffffff; stroke-width: 0.8"/>
      </defs>
      <g>
       <use xlink:href="#m039e3e78f8" x="58.408888" y="312.237812" style="fill: #ffffff; stroke: #ffffff; stroke-width: 0.8"/>
      </g>
     </g>
     <g id="text_1">
      <!-- 0.0 -->
      <g style="fill: #ffffff" transform="translate(50.457326 326.83625) scale(0.1 -0.1)">
       <defs>
        <path id="DejaVuSans-30" d="M 2034 4250 
Q 1547 4250 1301 3770 
Q 1056 3291 1056 2328 
Q 1056 1369 1301 889 
Q 1547 409 2034 409 
Q 2525 409 2770 889 
Q 3016 1369 3016 2328 
Q 3016 3291 2770 3770 
Q 2525 4250 2034 4250 
z
M 2034 4750 
Q 2819 4750 3233 4129 
Q 3647 3509 3647 2328 
Q 3647 1150 3233 529 
Q 2819 -91 2034 -91 
Q 1250 -91 836 529 
Q 422 1150 422 2328 
Q 422 3509 836 4129 
Q 1250 4750 2034 4750 
z
" transform="scale(0.015625)"/>
        <path id="DejaVuSans-2e" d="M 684 794 
L 1344 794 
L 1344 0 
L 684 0 
L 684 794 
z
" transform="scale(0.015625)"/>
       </defs>
       <use xlink:href="#DejaVuSans-30"/>
       <use xlink:href="#DejaVuSans-2e" transform="translate(63.623047 0)"/>
       <use xlink:href="#DejaVuSans-30" transform="translate(95.410156 0)"/>
      </g>
     </g>
    </g>
    <g id="xtick_2">
     <g id="line2d_3">
      <path d="M 119.035556 312.237812 
L 119.035556 23.837812 
" clip-path="url(#p4a72709b1b)" style="fill: none; stroke: #444444; stroke-width: 0.8; stroke-linecap: square"/>
     </g>
     <g id="line2d_4">
      <g>
       <use xlink:href="#m039e3e78f8" x="119.035556" y="312.237812" style="fill: #ffffff; stroke: #ffffff; stroke-width: 0.8"/>
      </g>
     </g>
     <g id="text_2">
      <!-- 0.2 -->
      <g style="fill: #ffffff" transform="translate(111.083993 326.83625) scale(0.1 -0.1)">
       <defs>
        <path id="DejaVuSans-32" d="M 1228 531 
L 3431 531 
L 3431 0 
L 469 0 
L 469 531 
Q 828 903 1448 1529 
Q 2069 2156 2228 2338 
Q 2531 2678 2651 2914 
Q 2772 3150 2772 3378 
Q 2772 3750 2511 3984 
Q 2250 4219 1831 4219 
Q 1534 4219 1204 4116 
Q 875 4013 500 3803 
L 500 4441 
Q 881 4594 1212 4672 
Q 1544 4750 1819 4750 
Q 2544 4750 2975 4387 
Q 3406 4025 3406 3419 
Q 3406 3131 3298 2873 
Q 3191 2616 2906 2266 
Q 2828 2175 2409 1742 
Q 1991 1309 1228 531 
z
" transform="scale(0.015625)"/>
       </defs>
       <use xlink:href="#DejaVuSans-30"/>
       <use xlink:href="#DejaVuSans-2e" transform="translate(63.623047 0)"/>
       <use xlink:href="#DejaVuSans-32" transform="translate(95.410156 0)"/>
      </g>
     </g>
    </g>
    <g id="xtick_3">
     <g id="line2d_5">
      <path d="M 179.662223 312.237812 
L 179.662223 23.837812 
" clip-path="url(#p4a72709b1b)" style="fill: none; stroke: #444444; stroke-width: 0.8; stroke-linecap: square"/>
     </g>
     <g id="line2d_6">
      <g>
       <use xlink:href="#m039e3e78f8" x="179.662223" y="312.237812" style="fill: #ffffff; stroke: #ffffff; stroke-width: 0.8"/>
      </g>
     </g>
     <g id="text_3">
      <!-- 0.4 -->
      <g style="fill: #ffffff" transform="translate(171.710661 326.83625) scale(0.1 -0.1)">
       <defs>
        <path id="DejaVuSans-34" d="M 2419 4116 
L 825 1625 
L 2419 1625 
L 2419 4116 
z
M 2253 4666 
L 3047 4666 
L 3047 1625 
L 3713 1625 
L 3713 1100 
L 3047 1100 
L 3047 0 
L 2419 0 
L 2419 1100 
L 313 1100 
L 313 1709 
L 2253 4666 
z
" transform="scale(0.015625)"/>
       </defs>
       <use xlink:href="#DejaVuSans-30"/>
       <use xlink:href="#DejaVuSans-2e" transform="translate(63.623047 0)"/>
       <use xlink:href="#DejaVuSans-34" transform="translate(95.410156 0)"/>
      </g>
     </g>
    </g>
    <g id="xtick_4">
     <g id="line2d_7">
      <path d="M 240.288891 312.237812 
L 240.288891 23.837812 
" clip-path="url(#p4a72709b1b)" style="fill: none; stroke: #444444; stroke-width: 0.8; stroke-linecap: square"/>
     </g>
     <g id="line2d_8">
      <g>
       <use xlink:href="#m039e3e78f8" x="240.288891" y="312.237812" style="fill: #ffffff; stroke: #ffffff; stroke-width: 0.8"/>
      </g>
     </g>
     <g id="text_4">
      <!-- 0.6 -->
      <g style="fill: #ffffff" transform="translate(232.337328 326.83625) scale(0.1 -0.1)">
       <defs>
        <path id="DejaVuSans-36" d="M 2113 2584 
Q 1688 2584 1439 2293 
Q 1191 2003 1191 1497 
Q 1191 994 1439 701 
Q 1688 409 2113 409 
Q 2538 409 2786 701 
Q 3034 994 3034 1497 
Q 3034 2003 2786 2293 
Q 2538 2584 2113 2584 
z
M 3366 4563 
L 3366 3988 
Q 3128 4100 2886 4159 
Q 2644 4219 2406 4219 
Q 1781 4219 1451 3797 
Q 1122 3375 1075 2522 
Q 1259 2794 1537 2939 
Q 1816 3084 2150 3084 
Q 2853 3084 3261 2657 
Q 3669 2231 3669 1497 
Q 3669 778 3244 343 
Q 2819 -91 2113 -91 
Q 1303 -91 875 529 
Q 447 1150 447 2328 
Q 447 3434 972 4092 
Q 1497 4750 2381 4750 
Q 2619 4750 2861 4703 
Q 3103 4656 3366 4563 
z
" transform="scale(0.015625)"/>
       </defs>
       <use xlink:href="#DejaVuSans-30"/>
       <use xlink:href="#DejaVuSans-2e" transform="translate(63.623047 0)"/>
       <use xlink:href="#DejaVuSans-36" transform="translate(95.410156 0)"/>
      </g>
     </g>
    </g>
    <g id="xtick_5">
     <g id="line2d_9">
      <path d="M 300.915558 312.237812 
L 300.915558 23.837812 
" clip-path="url(#p4a72709b1b)" style="fill: none; stroke: #444444; stroke-width: 0.8; stroke-linecap: square"/>
     </g>
     <g id="line2d_10">
      <g>
       <use xlink:href="#m039e3e78f8" x="300.915558" y="312.237812" style="fill: #ffffff; stroke: #ffffff; stroke-width: 0.8"/>
      </g>
     </g>
     <g id="text_5">
      <!-- 0.8 -->
      <g style="fill: #ffffff" transform="translate(292.963996 326.83625) scale(0.1 -0.1)">
       <defs>
        <path id="DejaVuSans-38" d="M 2034 2216 
Q 1584 2216 1326 1975 
Q 1069 1734 1069 1313 
Q 1069 891 1326 650 
Q 1584 409 2034 409 
Q 2484 409 2743 651 
Q 3003 894 3003 1313 
Q 3003 1734 2745 1975 
Q 2488 2216 2034 2216 
z
M 1403 2484 
Q 997 2584 770 2862 
Q 544 3141 544 3541 
Q 544 4100 942 4425 
Q 1341 4750 2034 4750 
Q 2731 4750 3128 4425 
Q 3525 4100 3525 3541 
Q 3525 3141 3298 2862 
Q 3072 2584 2669 2484 
Q 3125 2378 3379 2068 
Q 3634 1759 3634 1313 
Q 3634 634 3220 271 
Q 2806 -91 2034 -91 
Q 1263 -91 848 271 
Q 434 634 434 1313 
Q 434 1759 690 2068 
Q 947 2378 1403 2484 
z
M 1172 3481 
Q 1172 3119 1398 2916 
Q 1625 2713 2034 2713 
Q 2441 2713 2670 2916 
Q 2900 3119 2900 3481 
Q 2900 3844 2670 4047 
Q 2441 4250 2034 4250 
Q 1625 4250 1398 4047 
Q 1172 3844 1172 3481 
z
" transform="scale(0.015625)"/>
       </defs>
       <use xlink:href="#DejaVuSans-30"/>
       <use xlink:href="#DejaVuSans-2e" transform="translate(63.623047 0)"/>
       <use xlink:href="#DejaVuSans-38" transform="translate(95.410156 0)"/>
      </g>
     </g>
    </g>
    <g id="xtick_6">
     <g id="line2d_11">
      <path d="M 361.542225 312.237812 
L 361.542225 23.837812 
" clip-path="url(#p4a72709b1b)" style="fill: none; stroke: #444444; stroke-width: 0.8; stroke-linecap: square"/>
     </g>
     <g id="line2d_12">
      <g>
       <use xlink:href="#m039e3e78f8" x="361.542225" y="312.237812" style="fill: #ffffff; stroke: #ffffff; stroke-width: 0.8"/>
      </g>
     </g>
     <g id="text_6">
      <!-- 1.0 -->
      <g style="fill: #ffffff" transform="translate(353.590663 326.83625) scale(0.1 -0.1)">
       <defs>
        <path id="DejaVuSans-31" d="M 794 531 
L 1825 531 
L 1825 4091 
L 703 3866 
L 703 4441 
L 1819 4666 
L 2450 4666 
L 2450 531 
L 3481 531 
L 3481 0 
L 794 0 
L 794 531 
z
" transform="scale(0.015625)"/>
       </defs>
       <use xlink:href="#DejaVuSans-31"/>
       <use xlink:href="#DejaVuSans-2e" transform="translate(63.623047 0)"/>
       <use xlink:href="#DejaVuSans-30" transform="translate(95.410156 0)"/>
      </g>
     </g>
    </g>
    <g id="text_7">
     <!-- Training Update -->
     <g style="fill: #ffffff" transform="translate(163.288249 342.034062) scale(0.12 -0.12)">
      <defs>
       <path id="DejaVuSans-54" d="M -19 4666 
L 3928 4666 
L 3928 4134 
L 2272 4134 
L 2272 0 
L 1638 0 
L 1638 4134 
L -19 4134 
L -19 4666 
z
" transform="scale(0.015625)"/>
       <path id="DejaVuSans-72" d="M 2631 2963 
Q 2534 3019 2420 3045 
Q 2306 3072 2169 3072 
Q 1681 3072 1420 2755 
Q 1159 2438 1159 1844 
L 1159 0 
L 581 0 
L 581 3500 
L 1159 3500 
L 1159 2956 
Q 1341 3275 1631 3429 
Q 1922 3584 2338 3584 
Q 2397 3584 2469 3576 
Q 2541 3569 2628 3553 
L 2631 2963 
z
" transform="scale(0.015625)"/>
       <path id="DejaVuSans-61" d="M 2194 1759 
Q 1497 1759 1228 1600 
Q 959 1441 959 1056 
Q 959 750 1161 570 
Q 1363 391 1709 391 
Q 2188 391 2477 730 
Q 2766 1069 2766 1631 
L 2766 1759 
L 2194 1759 
z
M 3341 1997 
L 3341 0 
L 2766 0 
L 2766 531 
Q 2569 213 2275 61 
Q 1981 -91 1556 -91 
Q 1019 -91 701 211 
Q 384 513 384 1019 
Q 384 1609 779 1909 
Q 1175 2209 1959 2209 
L 2766 2209 
L 2766 2266 
Q 2766 2663 2505 2880 
Q 2244 3097 1772 3097 
Q 1472 3097 1187 3025 
Q 903 2953 641 2809 
L 641 3341 
Q 956 3463 1253 3523 
Q 1550 3584 1831 3584 
Q 2591 3584 2966 3190 
Q 3341 2797 3341 1997 
z
" transform="scale(0.015625)"/>
       <path id="DejaVuSans-69" d="M 603 3500 
L 1178 3500 
L 1178 0 
L 603 0 
L 603 3500 
z
M 603 4863 
L 1178 4863 
L 1178 4134 
L 603 4134 
L 603 4863 
z
" transform="scale(0.015625)"/>
       <path id="DejaVuSans-6e" d="M 3513 2113 
L 3513 0 
L 2938 0 
L 2938 2094 
Q 2938 2591 2744 2837 
Q 2550 3084 2163 3084 
Q 1697 3084 1428 2787 
Q 1159 2491 1159 1978 
L 1159 0 
L 581 0 
L 581 3500 
L 1159 3500 
L 1159 2956 
Q 1366 3272 1645 3428 
Q 1925 3584 2291 3584 
Q 2894 3584 3203 3211 
Q 3513 2838 3513 2113 
z
" transform="scale(0.015625)"/>
       <path id="DejaVuSans-67" d="M 2906 1791 
Q 2906 2416 2648 2759 
Q 2391 3103 1925 3103 
Q 1463 3103 1205 2759 
Q 947 2416 947 1791 
Q 947 1169 1205 825 
Q 1463 481 1925 481 
Q 2391 481 2648 825 
Q 2906 1169 2906 1791 
z
M 3481 434 
Q 3481 -459 3084 -895 
Q 2688 -1331 1869 -1331 
Q 1566 -1331 1297 -1286 
Q 1028 -1241 775 -1147 
L 775 -588 
Q 1028 -725 1275 -790 
Q 1522 -856 1778 -856 
Q 2344 -856 2625 -561 
Q 2906 -266 2906 331 
L 2906 616 
Q 2728 306 2450 153 
Q 2172 0 1784 0 
Q 1141 0 747 490 
Q 353 981 353 1791 
Q 353 2603 747 3093 
Q 1141 3584 1784 3584 
Q 2172 3584 2450 3431 
Q 2728 3278 2906 2969 
L 2906 3500 
L 3481 3500 
L 3481 434 
z
" transform="scale(0.015625)"/>
       <path id="DejaVuSans-20" transform="scale(0.015625)"/>
       <path id="DejaVuSans-55" d="M 556 4666 
L 1191 4666 
L 1191 1831 
Q 1191 1081 1462 751 
Q 1734 422 2344 422 
Q 2950 422 3222 751 
Q 3494 1081 3494 1831 
L 3494 4666 
L 4128 4666 
L 4128 1753 
Q 4128 841 3676 375 
Q 3225 -91 2344 -91 
Q 1459 -91 1007 375 
Q 556 841 556 1753 
L 556 4666 
z
" transform="scale(0.015625)"/>
       <path id="DejaVuSans-70" d="M 1159 525 
L 1159 -1331 
L 581 -1331 
L 581 3500 
L 1159 3500 
L 1159 2969 
Q 1341 3281 1617 3432 
Q 1894 3584 2278 3584 
Q 2916 3584 3314 3078 
Q 3713 2572 3713 1747 
Q 3713 922 3314 415 
Q 2916 -91 2278 -91 
Q 1894 -91 1617 61 
Q 1341 213 1159 525 
z
M 3116 1747 
Q 3116 2381 2855 2742 
Q 2594 3103 2138 3103 
Q 1681 3103 1420 2742 
Q 1159 2381 1159 1747 
Q 1159 1113 1420 752 
Q 1681 391 2138 391 
Q 2594 391 2855 752 
Q 3116 1113 3116 1747 
z
" transform="scale(0.015625)"/>
       <path id="DejaVuSans-64" d="M 2906 2969 
L 2906 4863 
L 3481 4863 
L 3481 0 
L 2906 0 
L 2906 525 
Q 2725 213 2448 61 
Q 2172 -91 1784 -91 
Q 1150 -91 751 415 
Q 353 922 353 1747 
Q 353 2572 751 3078 
Q 1150 3584 1784 3584 
Q 2172 3584 2448 3432 
Q 2725 3281 2906 2969 
z
M 947 1747 
Q 947 1113 1208 752 
Q 1469 391 1925 391 
Q 2381 391 2643 752 
Q 2906 1113 2906 1747 
Q 2906 2381 2643 2742 
Q 2381 3103 1925 3103 
Q 1469 3103 1208 2742 
Q 947 2381 947 1747 
z
" transform="scale(0.015625)"/>
       <path id="DejaVuSans-74" d="M 1172 4494 
L 1172 3500 
L 2356 3500 
L 2356 3053 
L 1172 3053 
L 1172 1153 
Q 1172 725 1289 603 
Q 1406 481 1766 481 
L 2356 481 
L 2356 0 
L 1766 0 
Q 1100 0 847 248 
Q 594 497 594 1153 
L 594 3053 
L 172 3053 
L 172 3500 
L 594 3500 
L 594 4494 
L 1172 4494 
z
" transform="scale(0.015625)"/>
       <path id="DejaVuSans-65" d="M 3597 1894 
L 3597 1613 
L 953 1613 
Q 991 1019 1311 708 
Q 1631 397 2203 397 
Q 2534 397 2845 478 
Q 3156 559 3463 722 
L 3463 178 
Q 3153 47 2828 -22 
Q 2503 -91 2169 -91 
Q 1331 -91 842 396 
Q 353 884 353 1716 
Q 353 2575 817 3079 
Q 1281 3584 2069 3584 
Q 2775 3584 3186 3129 
Q 3597 2675 3597 1894 
z
M 3022 2063 
Q 3016 2534 2758 2815 
Q 2500 3097 2075 3097 
Q 1594 3097 1305 2825 
Q 1016 2553 972 2059 
L 3022 2063 
z
" transform="scale(0.015625)"/>
      </defs>
      <use xlink:href="#DejaVuSans-54"/>
      <use xlink:href="#DejaVuSans-72" transform="translate(46.333984 0)"/>
      <use xlink:href="#DejaVuSans-61" transform="translate(87.447266 0)"/>
      <use xlink:href="#DejaVuSans-69" transform="translate(148.726562 0)"/>
      <use xlink:href="#DejaVuSans-6e" transform="translate(176.509766 0)"/>
      <use xlink:href="#DejaVuSans-69" transform="translate(239.888672 0)"/>
      <use xlink:href="#DejaVuSans-6e" transform="translate(267.671875 0)"/>
      <use xlink:href="#DejaVuSans-67" transform="translate(331.050781 0)"/>
      <use xlink:href="#DejaVuSans-20" transform="translate(394.527344 0)"/>
      <use xlink:href="#DejaVuSans-55" transform="translate(426.314453 0)"/>
      <use xlink:href="#DejaVuSans-70" transform="translate(499.507812 0)"/>
      <use xlink:href="#DejaVuSans-64" transform="translate(562.984375 0)"/>
      <use xlink:href="#DejaVuSans-61" transform="translate(626.460938 0)"/>
      <use xlink:href="#DejaVuSans-74" transform="translate(687.740234 0)"/>
      <use xlink:href="#DejaVuSans-65" transform="translate(726.949219 0)"/>
     </g>
    </g>
    <g id="text_8">
     <!-- 1e6 -->
     <g style="fill: #ffffff" transform="translate(357.758686 339.514375) scale(0.1 -0.1)">
      <use xlink:href="#DejaVuSans-31"/>
      <use xlink:href="#DejaVuSans-65" transform="translate(63.623047 0)"/>
      <use xlink:href="#DejaVuSans-36" transform="translate(125.146484 0)"/>
     </g>
    </g>
   </g>
   <g id="matplotlib.axis_2">
    <g id="ytick_1">
     <g id="line2d_13">
      <path d="M 44.555937 300.448169 
L 376.636811 300.448169 
" clip-path="url(#p4a72709b1b)" style="fill: none; stroke: #444444; stroke-width: 0.8; stroke-linecap: square"/>
     </g>
     <g id="line2d_14">
      <defs>
       <path id="m851ce0a499" d="M 0 0 
L -3.5 0 
" style="stroke: #ffffff; stroke-width: 0.8"/>
      </defs>
      <g>
       <use xlink:href="#m851ce0a499" x="44.555937" y="300.448169" style="fill: #ffffff; stroke: #ffffff; stroke-width: 0.8"/>
      </g>
     </g>
     <g id="text_9">
      <!-- −2 -->
      <g style="fill: #ffffff" transform="translate(22.81375 304.247388) scale(0.1 -0.1)">
       <defs>
        <path id="DejaVuSans-2212" d="M 678 2272 
L 4684 2272 
L 4684 1741 
L 678 1741 
L 678 2272 
z
" transform="scale(0.015625)"/>
       </defs>
       <use xlink:href="#DejaVuSans-2212"/>
       <use xlink:href="#DejaVuSans-32" transform="translate(83.789062 0)"/>
      </g>
     </g>
    </g>
    <g id="ytick_2">
     <g id="line2d_15">
      <path d="M 44.555937 254.070236 
L 376.636811 254.070236 
" clip-path="url(#p4a72709b1b)" style="fill: none; stroke: #444444; stroke-width: 0.8; stroke-linecap: square"/>
     </g>
     <g id="line2d_16">
      <g>
       <use xlink:href="#m851ce0a499" x="44.555937" y="254.070236" style="fill: #ffffff; stroke: #ffffff; stroke-width: 0.8"/>
      </g>
     </g>
     <g id="text_10">
      <!-- −1 -->
      <g style="fill: #ffffff" transform="translate(22.81375 257.869455) scale(0.1 -0.1)">
       <use xlink:href="#DejaVuSans-2212"/>
       <use xlink:href="#DejaVuSans-31" transform="translate(83.789062 0)"/>
      </g>
     </g>
    </g>
    <g id="ytick_3">
     <g id="line2d_17">
      <path d="M 44.555937 207.692303 
L 376.636811 207.692303 
" clip-path="url(#p4a72709b1b)" style="fill: none; stroke: #444444; stroke-width: 0.8; stroke-linecap: square"/>
     </g>
     <g id="line2d_18">
      <g>
       <use xlink:href="#m851ce0a499" x="44.555937" y="207.692303" style="fill: #ffffff; stroke: #ffffff; stroke-width: 0.8"/>
      </g>
     </g>
     <g id="text_11">
      <!-- 0 -->
      <g style="fill: #ffffff" transform="translate(31.193437 211.491522) scale(0.1 -0.1)">
       <use xlink:href="#DejaVuSans-30"/>
      </g>
     </g>
    </g>
    <g id="ytick_4">
     <g id="line2d_19">
      <path d="M 44.555937 161.31437 
L 376.636811 161.31437 
" clip-path="url(#p4a72709b1b)" style="fill: none; stroke: #444444; stroke-width: 0.8; stroke-linecap: square"/>
     </g>
     <g id="line2d_20">
      <g>
       <use xlink:href="#m851ce0a499" x="44.555937" y="161.31437" style="fill: #ffffff; stroke: #ffffff; stroke-width: 0.8"/>
      </g>
     </g>
     <g id="text_12">
      <!-- 1 -->
      <g style="fill: #ffffff" transform="translate(31.193437 165.113589) scale(0.1 -0.1)">
       <use xlink:href="#DejaVuSans-31"/>
      </g>
     </g>
    </g>
    <g id="ytick_5">
     <g id="line2d_21">
      <path d="M 44.555937 114.936438 
L 376.636811 114.936438 
" clip-path="url(#p4a72709b1b)" style="fill: none; stroke: #444444; stroke-width: 0.8; stroke-linecap: square"/>
     </g>
     <g id="line2d_22">
      <g>
       <use xlink:href="#m851ce0a499" x="44.555937" y="114.936438" style="fill: #ffffff; stroke: #ffffff; stroke-width: 0.8"/>
      </g>
     </g>
     <g id="text_13">
      <!-- 2 -->
      <g style="fill: #ffffff" transform="translate(31.193437 118.735656) scale(0.1 -0.1)">
       <use xlink:href="#DejaVuSans-32"/>
      </g>
     </g>
    </g>
    <g id="ytick_6">
     <g id="line2d_23">
      <path d="M 44.555937 68.558505 
L 376.636811 68.558505 
" clip-path="url(#p4a72709b1b)" style="fill: none; stroke: #444444; stroke-width: 0.8; stroke-linecap: square"/>
     </g>
     <g id="line2d_24">
      <g>
       <use xlink:href="#m851ce0a499" x="44.555937" y="68.558505" style="fill: #ffffff; stroke: #ffffff; stroke-width: 0.8"/>
      </g>
     </g>
     <g id="text_14">
      <!-- 3 -->
      <g style="fill: #ffffff" transform="translate(31.193437 72.357724) scale(0.1 -0.1)">
       <defs>
        <path id="DejaVuSans-33" d="M 2597 2516 
Q 3050 2419 3304 2112 
Q 3559 1806 3559 1356 
Q 3559 666 3084 287 
Q 2609 -91 1734 -91 
Q 1441 -91 1130 -33 
Q 819 25 488 141 
L 488 750 
Q 750 597 1062 519 
Q 1375 441 1716 441 
Q 2309 441 2620 675 
Q 2931 909 2931 1356 
Q 2931 1769 2642 2001 
Q 2353 2234 1838 2234 
L 1294 2234 
L 1294 2753 
L 1863 2753 
Q 2328 2753 2575 2939 
Q 2822 3125 2822 3475 
Q 2822 3834 2567 4026 
Q 2313 4219 1838 4219 
Q 1578 4219 1281 4162 
Q 984 4106 628 3988 
L 628 4550 
Q 988 4650 1302 4700 
Q 1616 4750 1894 4750 
Q 2613 4750 3031 4423 
Q 3450 4097 3450 3541 
Q 3450 3153 3228 2886 
Q 3006 2619 2597 2516 
z
" transform="scale(0.015625)"/>
       </defs>
       <use xlink:href="#DejaVuSans-33"/>
      </g>
     </g>
    </g>
    <g id="text_15">
     <!-- Reward -->
     <g style="fill: #ffffff" transform="translate(16.318125 190.383125) rotate(-90) scale(0.12 -0.12)">
      <defs>
       <path id="DejaVuSans-52" d="M 2841 2188 
Q 3044 2119 3236 1894 
Q 3428 1669 3622 1275 
L 4263 0 
L 3584 0 
L 2988 1197 
Q 2756 1666 2539 1819 
Q 2322 1972 1947 1972 
L 1259 1972 
L 1259 0 
L 628 0 
L 628 4666 
L 2053 4666 
Q 2853 4666 3247 4331 
Q 3641 3997 3641 3322 
Q 3641 2881 3436 2590 
Q 3231 2300 2841 2188 
z
M 1259 4147 
L 1259 2491 
L 2053 2491 
Q 2509 2491 2742 2702 
Q 2975 2913 2975 3322 
Q 2975 3731 2742 3939 
Q 2509 4147 2053 4147 
L 1259 4147 
z
" transform="scale(0.015625)"/>
       <path id="DejaVuSans-77" d="M 269 3500 
L 844 3500 
L 1563 769 
L 2278 3500 
L 2956 3500 
L 3675 769 
L 4391 3500 
L 4966 3500 
L 4050 0 
L 3372 0 
L 2619 2869 
L 1863 0 
L 1184 0 
L 269 3500 
z
" transform="scale(0.015625)"/>
      </defs>
      <use xlink:href="#DejaVuSans-52"/>
      <use xlink:href="#DejaVuSans-65" transform="translate(64.982422 0)"/>
      <use xlink:href="#DejaVuSans-77" transform="translate(126.505859 0)"/>
      <use xlink:href="#DejaVuSans-61" transform="translate(208.292969 0)"/>
      <use xlink:href="#DejaVuSans-72" transform="translate(269.572266 0)"/>
      <use xlink:href="#DejaVuSans-64" transform="translate(308.935547 0)"/>
     </g>
    </g>
   </g>
   <g id="line2d_25">
    <path d="M 59.650523 183.335779 
L 60.892157 63.649446 
L 62.133791 66.689722 
L 63.375425 178.374261 
L 64.617059 139.945672 
L 65.858693 121.040687 
L 67.100328 50.966841 
L 68.341962 192.128559 
L 69.583596 92.968712 
L 70.82523 143.369214 
L 72.066864 55.169478 
L 73.308498 169.867112 
L 74.550132 113.98378 
L 75.791767 206.572776 
L 77.033401 128.536593 
L 78.275035 91.231734 
L 79.516669 45.806791 
L 80.758303 191.537035 
L 81.999937 61.325775 
L 83.241571 219.857977 
L 84.483206 192.36076 
L 85.72484 252.224409 
L 86.966474 198.649994 
L 88.208108 233.871628 
L 89.449742 235.518962 
L 90.691376 187.803721 
L 91.93301 167.99766 
L 93.174645 111.657919 
L 94.416279 245.932372 
L 95.657913 134.878078 
L 96.899547 185.726745 
L 98.141181 96.614081 
L 99.382815 283.532087 
L 100.62445 115.967194 
L 101.866084 288.003441 
L 103.107718 106.532103 
L 104.349352 271.17092 
L 105.590986 91.319927 
L 106.83262 105.390397 
L 108.074254 117.602174 
L 109.315889 267.329737 
L 110.557523 69.968451 
L 111.799157 116.563163 
L 113.040791 91.95975 
L 114.282425 57.739541 
L 115.524059 52.846039 
L 116.765693 71.193452 
L 118.007328 47.127991 
L 119.248962 71.617723 
L 120.490596 48.07847 
L 121.73223 65.034369 
L 122.973864 58.518067 
L 124.215498 63.20923 
L 125.457132 75.866668 
L 126.698767 69.89555 
L 127.940401 109.280111 
L 129.182035 65.22533 
L 130.423669 62.65007 
L 131.665303 74.222505 
L 132.906937 240.244944 
L 134.148572 175.908729 
L 135.390206 54.961158 
L 136.63184 76.886334 
L 137.873474 222.030672 
L 139.115108 143.114303 
L 140.356742 83.662827 
L 141.598376 83.435443 
L 142.840011 50.775526 
L 144.081645 132.465097 
L 145.323279 51.702067 
L 146.564913 90.550114 
L 147.806547 56.01467 
L 149.048181 63.730795 
L 150.289815 48.274285 
L 151.53145 63.312252 
L 152.773084 43.801428 
L 154.014718 62.989377 
L 155.256352 49.606708 
L 156.497986 77.59991 
L 157.73962 42.92909 
L 158.981254 63.093471 
L 160.222889 44.367122 
L 161.464523 61.230571 
L 162.706157 47.864367 
L 163.947791 56.819944 
L 165.189425 52.290573 
L 166.431059 58.462758 
L 167.672694 56.819624 
L 168.914328 61.442717 
L 170.155962 75.271871 
L 171.397596 225.594215 
L 172.63923 135.877244 
L 173.880864 257.737039 
L 175.122498 90.201674 
L 176.364133 55.073235 
L 177.605767 63.589482 
L 178.847401 50.192649 
L 180.089035 62.08839 
L 181.330669 45.250628 
L 182.572303 86.387526 
L 183.813937 55.231665 
L 185.055572 70.80556 
L 186.297206 44.491186 
L 187.53884 61.191206 
L 188.780474 39.569367 
L 190.022108 60.807052 
L 191.263742 39.41254 
L 192.505376 79.331349 
L 193.747011 39.605414 
L 194.988645 59.833009 
L 196.230279 40.580175 
L 197.471913 74.81361 
L 198.713547 39.595849 
L 199.955181 57.909271 
L 201.196815 38.544427 
L 202.43845 57.968716 
L 203.680084 43.908076 
L 204.921718 59.08374 
L 206.163352 38.914627 
L 207.404986 60.193346 
L 208.64662 42.006884 
L 209.888255 58.386352 
L 211.129889 45.622155 
L 212.371523 56.701498 
L 213.613157 41.691871 
L 214.854791 56.942548 
L 216.096425 124.503753 
L 217.338059 45.96668 
L 218.579694 166.19536 
L 219.821328 48.902255 
L 221.062962 135.768489 
L 222.304596 50.837945 
L 223.54623 65.77592 
L 224.787864 50.905793 
L 226.029498 58.717476 
L 227.271133 41.139092 
L 228.512767 81.291587 
L 229.754401 37.773353 
L 230.996035 88.752198 
L 232.237669 37.64334 
L 233.479303 95.844809 
L 234.720937 39.478243 
L 235.962572 77.23453 
L 237.204206 38.619009 
L 238.44584 58.800583 
L 239.687474 42.447078 
L 240.929108 258.055635 
L 242.170742 241.453602 
L 243.412377 208.913713 
L 244.654011 258.582303 
L 245.895645 219.788477 
L 247.137279 272.297378 
L 248.378913 203.140064 
L 249.620547 46.495388 
L 250.862181 68.522966 
L 252.103816 41.402235 
L 253.34545 106.164213 
L 254.587084 51.687471 
L 255.828718 73.693278 
L 257.070352 50.199991 
L 258.311986 86.47395 
L 259.55362 85.181201 
L 260.795255 202.038512 
L 262.036889 299.128722 
L 263.278523 107.743049 
L 264.520157 157.396648 
L 265.761791 81.538475 
L 267.003425 60.327295 
L 268.245059 99.38625 
L 269.486694 74.807617 
L 270.728328 62.204558 
L 271.969962 73.804714 
L 273.211596 185.866205 
L 274.45323 60.000196 
L 275.694864 224.130154 
L 276.936499 246.285279 
L 278.178133 65.490187 
L 279.419767 61.580901 
L 281.903035 66.037128 
L 283.144669 61.112887 
L 284.386303 80.79228 
L 285.627938 42.899523 
L 286.869572 74.85921 
L 288.111206 54.010402 
L 289.35284 68.494881 
L 290.594474 49.798343 
L 291.836108 69.224622 
L 293.077742 38.319431 
L 294.319377 93.63483 
L 295.561011 39.372302 
L 296.802645 70.61398 
L 298.044279 45.928488 
L 299.285913 67.754325 
L 300.527547 40.342752 
L 301.769181 90.786985 
L 303.010816 43.817782 
L 304.25245 61.107679 
L 305.494084 44.068927 
L 306.735718 79.983434 
L 307.977352 124.387153 
L 309.218986 59.180514 
L 310.460621 128.114036 
L 311.702255 83.042099 
L 312.943889 111.568222 
L 314.185523 93.158346 
L 315.427157 112.690312 
L 316.668791 70.025783 
L 317.910425 43.269314 
L 319.15206 106.310414 
L 320.393694 54.595181 
L 321.635328 56.187629 
L 322.876962 54.319786 
L 324.118596 97.714211 
L 325.36023 62.941343 
L 326.601864 47.413934 
L 327.843499 57.116735 
L 329.085133 43.481892 
L 330.326767 56.478648 
L 331.568401 42.89165 
L 332.810035 59.79966 
L 334.051669 36.946903 
L 335.293303 58.108226 
L 336.534938 37.843478 
L 337.776572 188.512003 
L 339.018206 41.039211 
L 340.25984 204.406183 
L 341.501474 53.545229 
L 342.743108 187.272907 
L 343.984743 95.044566 
L 345.226377 234.193281 
L 346.468011 273.178771 
L 347.709645 234.577204 
L 348.951279 59.846067 
L 350.192913 241.842263 
L 351.434547 283.8198 
L 352.676182 164.336712 
L 353.917816 115.376521 
L 355.15945 147.495218 
L 356.401084 149.618552 
L 357.642718 132.912655 
L 358.884352 123.573353 
L 360.125986 105.574004 
L 361.367621 127.329467 
L 361.542225 211.071613 
L 361.542225 211.071613 
" clip-path="url(#p4a72709b1b)" style="fill: none; stroke: #55aaff; stroke-opacity: 0.3; stroke-width: 1.5; stroke-linecap: square"/>
   </g>
   <g id="line2d_26">
    <path d="M 59.650523 165.469596 
L 60.892157 157.843455 
L 62.133791 155.952195 
L 63.375425 151.266769 
L 64.617059 151.210793 
L 65.858693 147.253007 
L 67.100328 141.429979 
L 68.341962 133.335703 
L 69.583596 132.52794 
L 70.82523 125.209613 
L 72.066864 125.817897 
L 73.308498 126.269146 
L 74.550132 135.697894 
L 75.791767 142.295908 
L 77.033401 145.070776 
L 78.275035 149.849441 
L 79.516669 153.187592 
L 80.758303 159.039133 
L 81.999937 155.015601 
L 83.241571 162.663784 
L 84.483206 162.239228 
L 85.72484 168.767091 
L 86.966474 165.104439 
L 88.208108 173.581855 
L 89.449742 169.051576 
L 90.691376 177.024918 
L 91.93301 177.789937 
L 93.174645 189.058143 
L 94.416279 184.047288 
L 95.657913 186.250519 
L 96.899547 181.137729 
L 98.141181 184.886177 
L 99.382815 175.77338 
L 100.62445 171.669038 
L 101.866084 164.573444 
L 103.107718 155.684473 
L 104.349352 148.936589 
L 105.590986 144.096379 
L 106.83262 140.869882 
L 108.074254 132.15415 
L 109.315889 127.814169 
L 110.557523 121.77955 
L 111.799157 119.87475 
L 113.040791 108.858607 
L 114.282425 106.853581 
L 115.524059 95.948186 
L 116.765693 96.085587 
L 118.007328 85.788307 
L 120.490596 82.79642 
L 121.73223 88.928558 
L 122.973864 84.357508 
L 124.215498 83.607143 
L 125.457132 81.623302 
L 126.698767 88.126848 
L 127.940401 92.395586 
L 129.182035 93.936425 
L 130.423669 94.548525 
L 131.665303 94.730901 
L 132.906937 97.77327 
L 134.148572 97.95445 
L 135.390206 99.230237 
L 136.63184 99.105067 
L 137.873474 99.131146 
L 139.115108 97.751526 
L 140.356742 97.422362 
L 141.598376 94.148427 
L 142.840011 94.03663 
L 144.081645 93.384462 
L 145.323279 93.553332 
L 146.564913 83.687539 
L 147.806547 78.046776 
L 149.048181 77.517074 
L 150.289815 76.734286 
L 151.53145 68.025971 
L 152.773084 63.711253 
L 154.014718 62.14264 
L 155.256352 60.894006 
L 156.497986 61.196211 
L 157.73962 57.645092 
L 158.981254 58.823582 
L 160.222889 65.575787 
L 161.464523 69.568916 
L 162.706157 79.269228 
L 163.947791 81.365598 
L 165.189425 80.953647 
L 166.431059 81.94305 
L 167.672694 81.303213 
L 168.914328 81.927297 
L 170.155962 80.309833 
L 171.397596 82.482755 
L 172.63923 82.089665 
L 173.880864 83.411586 
L 175.122498 82.574617 
L 176.364133 83.240959 
L 177.605767 82.37843 
L 178.847401 82.804254 
L 180.089035 81.851743 
L 181.330669 82.97733 
L 182.572303 81.885464 
L 183.813937 81.113521 
L 185.055572 71.862819 
L 186.297206 68.809638 
L 187.53884 57.902578 
L 188.780474 56.287958 
L 190.022108 55.461518 
L 194.988645 54.399218 
L 196.230279 53.089509 
L 198.713547 51.80731 
L 199.955181 51.863858 
L 201.196815 51.639373 
L 202.43845 51.745498 
L 203.680084 51.552273 
L 204.921718 55.806833 
L 206.163352 54.1386 
L 207.404986 60.468097 
L 208.64662 59.92156 
L 209.888255 64.680975 
L 211.129889 63.482192 
L 212.371523 64.791196 
L 213.613157 64.441022 
L 214.854791 65.449674 
L 216.096425 64.608193 
L 217.338059 66.477369 
L 218.579694 65.411849 
L 219.821328 67.903728 
L 221.062962 66.776227 
L 222.304596 69.468124 
L 223.54623 68.522718 
L 224.787864 70.103337 
L 226.029498 69.199213 
L 227.271133 70.054648 
L 228.512767 69.329875 
L 229.754401 76.007469 
L 230.996035 85.781815 
L 232.237669 87.917732 
L 233.479303 98.401735 
L 234.720937 102.602734 
L 235.962572 113.675706 
L 237.204206 120.543913 
L 238.44584 120.323393 
L 239.687474 120.813667 
L 240.929108 120.826824 
L 242.170742 122.070456 
L 243.412377 122.766162 
L 244.654011 122.013216 
L 245.895645 122.641048 
L 247.137279 122.172505 
L 248.378913 124.457653 
L 249.620547 130.697852 
L 250.862181 143.723338 
L 252.103816 146.170461 
L 253.34545 151.91794 
L 255.828718 134.035766 
L 257.070352 128.559393 
L 258.311986 119.370659 
L 259.55362 111.491463 
L 260.795255 101.56683 
L 262.036889 100.703137 
L 263.278523 101.378377 
L 264.520157 109.158737 
L 265.761791 119.402889 
L 267.003425 117.369188 
L 268.245059 117.863859 
L 269.486694 117.371815 
L 270.728328 118.163672 
L 271.969962 116.895619 
L 273.211596 116.676173 
L 274.45323 108.719224 
L 275.694864 97.505748 
L 276.936499 94.819116 
L 278.178133 90.374027 
L 279.419767 88.787021 
L 280.661401 89.231887 
L 281.903035 86.178546 
L 283.144669 87.119907 
L 284.386303 85.978294 
L 285.627938 85.818757 
L 286.869572 78.821871 
L 288.111206 79.209578 
L 289.35284 70.020208 
L 290.594474 62.245293 
L 291.836108 61.161673 
L 293.077742 61.138012 
L 294.319377 60.148838 
L 295.561011 60.846153 
L 296.802645 64.009866 
L 298.044279 62.929278 
L 299.285913 67.190004 
L 300.527547 67.599148 
L 301.769181 70.477039 
L 303.010816 71.710213 
L 304.25245 74.854811 
L 305.494084 74.894869 
L 306.735718 75.142363 
L 307.977352 75.776142 
L 309.218986 76.537286 
L 310.460621 75.815969 
L 311.702255 76.235534 
L 312.943889 77.733528 
L 314.185523 78.863458 
L 315.427157 76.694805 
L 316.668791 77.359753 
L 317.910425 76.478463 
L 319.15206 77.098949 
L 320.393694 75.24436 
L 321.635328 72.014986 
L 322.876962 70.903305 
L 324.118596 67.403014 
L 325.36023 65.143083 
L 326.601864 68.990273 
L 327.843499 66.384316 
L 329.085133 70.970109 
L 330.326767 70.146082 
L 331.568401 77.346261 
L 332.810035 76.782969 
L 334.051669 85.762874 
L 335.293303 96.612431 
L 336.534938 105.625302 
L 337.776572 103.731895 
L 339.018206 112.676941 
L 340.25984 124.497234 
L 341.501474 129.858233 
L 342.743108 133.452964 
L 343.984743 138.003793 
L 345.226377 143.340138 
L 346.468011 146.995788 
L 347.709645 151.32711 
L 348.951279 153.700399 
L 350.192913 158.174698 
L 351.434547 159.302679 
L 352.676182 167.635333 
L 353.917816 167.799639 
L 355.15945 175.506993 
L 356.401084 176.527963 
L 357.642718 182.16035 
L 358.884352 180.835301 
L 360.125986 177.560978 
L 361.367621 176.216733 
L 361.542225 183.609044 
L 361.542225 183.609044 
" clip-path="url(#p4a72709b1b)" style="fill: none; stroke: #00eaff; stroke-width: 2.5; stroke-linecap: square"/>
   </g>
   <g id="patch_3">
    <path d="M 44.555937 312.237812 
L 44.555937 23.837812 
" style="fill: none; stroke: #ffffff; stroke-width: 0.8; stroke-linejoin: miter; stroke-linecap: square"/>
   </g>
   <g id="patch_4">
    <path d="M 376.636811 312.237812 
L 376.636811 23.837812 
" style="fill: none; stroke: #ffffff; stroke-width: 0.8; stroke-linejoin: miter; stroke-linecap: square"/>
   </g>
   <g id="patch_5">
    <path d="M 44.555937 312.237812 
L 376.636811 312.237812 
" style="fill: none; stroke: #ffffff; stroke-width: 0.8; stroke-linejoin: miter; stroke-linecap: square"/>
   </g>
   <g id="patch_6">
    <path d="M 44.555937 23.837812 
L 376.636811 23.837812 
" style="fill: none; stroke: #ffffff; stroke-width: 0.8; stroke-linejoin: miter; stroke-linecap: square"/>
   </g>
   <g id="text_16">
    <!-- Mean Episodic Reward -->
    <g style="fill: #ffffff" transform="translate(132.025749 17.837812) scale(0.14 -0.14)">
     <defs>
      <path id="DejaVuSans-4d" d="M 628 4666 
L 1569 4666 
L 2759 1491 
L 3956 4666 
L 4897 4666 
L 4897 0 
L 4281 0 
L 4281 4097 
L 3078 897 
L 2444 897 
L 1241 4097 
L 1241 0 
L 628 0 
L 628 4666 
z
" transform="scale(0.015625)"/>
      <path id="DejaVuSans-45" d="M 628 4666 
L 3578 4666 
L 3578 4134 
L 1259 4134 
L 1259 2753 
L 3481 2753 
L 3481 2222 
L 1259 2222 
L 1259 531 
L 3634 531 
L 3634 0 
L 628 0 
L 628 4666 
z
" transform="scale(0.015625)"/>
      <path id="DejaVuSans-73" d="M 2834 3397 
L 2834 2853 
Q 2591 2978 2328 3040 
Q 2066 3103 1784 3103 
Q 1356 3103 1142 2972 
Q 928 2841 928 2578 
Q 928 2378 1081 2264 
Q 1234 2150 1697 2047 
L 1894 2003 
Q 2506 1872 2764 1633 
Q 3022 1394 3022 966 
Q 3022 478 2636 193 
Q 2250 -91 1575 -91 
Q 1294 -91 989 -36 
Q 684 19 347 128 
L 347 722 
Q 666 556 975 473 
Q 1284 391 1588 391 
Q 1994 391 2212 530 
Q 2431 669 2431 922 
Q 2431 1156 2273 1281 
Q 2116 1406 1581 1522 
L 1381 1569 
Q 847 1681 609 1914 
Q 372 2147 372 2553 
Q 372 3047 722 3315 
Q 1072 3584 1716 3584 
Q 2034 3584 2315 3537 
Q 2597 3491 2834 3397 
z
" transform="scale(0.015625)"/>
      <path id="DejaVuSans-6f" d="M 1959 3097 
Q 1497 3097 1228 2736 
Q 959 2375 959 1747 
Q 959 1119 1226 758 
Q 1494 397 1959 397 
Q 2419 397 2687 759 
Q 2956 1122 2956 1747 
Q 2956 2369 2687 2733 
Q 2419 3097 1959 3097 
z
M 1959 3584 
Q 2709 3584 3137 3096 
Q 3566 2609 3566 1747 
Q 3566 888 3137 398 
Q 2709 -91 1959 -91 
Q 1206 -91 779 398 
Q 353 888 353 1747 
Q 353 2609 779 3096 
Q 1206 3584 1959 3584 
z
" transform="scale(0.015625)"/>
      <path id="DejaVuSans-63" d="M 3122 3366 
L 3122 2828 
Q 2878 2963 2633 3030 
Q 2388 3097 2138 3097 
Q 1578 3097 1268 2742 
Q 959 2388 959 1747 
Q 959 1106 1268 751 
Q 1578 397 2138 397 
Q 2388 397 2633 464 
Q 2878 531 3122 666 
L 3122 134 
Q 2881 22 2623 -34 
Q 2366 -91 2075 -91 
Q 1284 -91 818 406 
Q 353 903 353 1747 
Q 353 2603 823 3093 
Q 1294 3584 2113 3584 
Q 2378 3584 2631 3529 
Q 2884 3475 3122 3366 
z
" transform="scale(0.015625)"/>
     </defs>
     <use xlink:href="#DejaVuSans-4d"/>
     <use xlink:href="#DejaVuSans-65" transform="translate(86.279297 0)"/>
     <use xlink:href="#DejaVuSans-61" transform="translate(147.802734 0)"/>
     <use xlink:href="#DejaVuSans-6e" transform="translate(209.082031 0)"/>
     <use xlink:href="#DejaVuSans-20" transform="translate(272.460938 0)"/>
     <use xlink:href="#DejaVuSans-45" transform="translate(304.248047 0)"/>
     <use xlink:href="#DejaVuSans-70" transform="translate(367.431641 0)"/>
     <use xlink:href="#DejaVuSans-69" transform="translate(430.908203 0)"/>
     <use xlink:href="#DejaVuSans-73" transform="translate(458.691406 0)"/>
     <use xlink:href="#DejaVuSans-6f" transform="translate(510.791016 0)"/>
     <use xlink:href="#DejaVuSans-64" transform="translate(571.972656 0)"/>
     <use xlink:href="#DejaVuSans-69" transform="translate(635.449219 0)"/>
     <use xlink:href="#DejaVuSans-63" transform="translate(663.232422 0)"/>
     <use xlink:href="#DejaVuSans-20" transform="translate(718.212891 0)"/>
     <use xlink:href="#DejaVuSans-52" transform="translate(750 0)"/>
     <use xlink:href="#DejaVuSans-65" transform="translate(814.982422 0)"/>
     <use xlink:href="#DejaVuSans-77" transform="translate(876.505859 0)"/>
     <use xlink:href="#DejaVuSans-61" transform="translate(958.292969 0)"/>
     <use xlink:href="#DejaVuSans-72" transform="translate(1019.572266 0)"/>
     <use xlink:href="#DejaVuSans-64" transform="translate(1058.935547 0)"/>
    </g>
   </g>
   <g id="legend_1">
    <g id="patch_7">
     <path d="M 148.843249 307.237812 
L 272.349499 307.237812 
Q 274.349499 307.237812 274.349499 305.237812 
L 274.349499 276.881562 
Q 274.349499 274.881562 272.349499 274.881562 
L 148.843249 274.881562 
Q 146.843249 274.881562 146.843249 276.881562 
L 146.843249 305.237812 
Q 146.843249 307.237812 148.843249 307.237812 
z
" style="opacity: 0.8; stroke: #cccccc; stroke-linejoin: miter"/>
    </g>
    <g id="line2d_27">
     <path d="M 150.843249 282.98 
L 160.843249 282.98 
L 170.843249 282.98 
" style="fill: none; stroke: #55aaff; stroke-opacity: 0.3; stroke-width: 1.5; stroke-linecap: square"/>
    </g>
    <g id="text_17">
     <!-- Raw Reward -->
     <g style="fill: #ffffff" transform="translate(178.843249 286.48) scale(0.1 -0.1)">
      <use xlink:href="#DejaVuSans-52"/>
      <use xlink:href="#DejaVuSans-61" transform="translate(67.232422 0)"/>
      <use xlink:href="#DejaVuSans-77" transform="translate(128.511719 0)"/>
      <use xlink:href="#DejaVuSans-20" transform="translate(210.298828 0)"/>
      <use xlink:href="#DejaVuSans-52" transform="translate(242.085938 0)"/>
      <use xlink:href="#DejaVuSans-65" transform="translate(307.068359 0)"/>
      <use xlink:href="#DejaVuSans-77" transform="translate(368.591797 0)"/>
      <use xlink:href="#DejaVuSans-61" transform="translate(450.378906 0)"/>
      <use xlink:href="#DejaVuSans-72" transform="translate(511.658203 0)"/>
      <use xlink:href="#DejaVuSans-64" transform="translate(551.021484 0)"/>
     </g>
    </g>
    <g id="line2d_28">
     <path d="M 150.843249 297.658125 
L 160.843249 297.658125 
L 170.843249 297.658125 
" style="fill: none; stroke: #00eaff; stroke-width: 2.5; stroke-linecap: square"/>
    </g>
    <g id="text_18">
     <!-- Smoothed Reward -->
     <g style="fill: #ffffff" transform="translate(178.843249 301.158125) scale(0.1 -0.1)">
      <defs>
       <path id="DejaVuSans-53" d="M 3425 4513 
L 3425 3897 
Q 3066 4069 2747 4153 
Q 2428 4238 2131 4238 
Q 1616 4238 1336 4038 
Q 1056 3838 1056 3469 
Q 1056 3159 1242 3001 
Q 1428 2844 1947 2747 
L 2328 2669 
Q 3034 2534 3370 2195 
Q 3706 1856 3706 1288 
Q 3706 609 3251 259 
Q 2797 -91 1919 -91 
Q 1588 -91 1214 -16 
Q 841 59 441 206 
L 441 856 
Q 825 641 1194 531 
Q 1563 422 1919 422 
Q 2459 422 2753 634 
Q 3047 847 3047 1241 
Q 3047 1584 2836 1778 
Q 2625 1972 2144 2069 
L 1759 2144 
Q 1053 2284 737 2584 
Q 422 2884 422 3419 
Q 422 4038 858 4394 
Q 1294 4750 2059 4750 
Q 2388 4750 2728 4690 
Q 3069 4631 3425 4513 
z
" transform="scale(0.015625)"/>
       <path id="DejaVuSans-6d" d="M 3328 2828 
Q 3544 3216 3844 3400 
Q 4144 3584 4550 3584 
Q 5097 3584 5394 3201 
Q 5691 2819 5691 2113 
L 5691 0 
L 5113 0 
L 5113 2094 
Q 5113 2597 4934 2840 
Q 4756 3084 4391 3084 
Q 3944 3084 3684 2787 
Q 3425 2491 3425 1978 
L 3425 0 
L 2847 0 
L 2847 2094 
Q 2847 2600 2669 2842 
Q 2491 3084 2119 3084 
Q 1678 3084 1418 2786 
Q 1159 2488 1159 1978 
L 1159 0 
L 581 0 
L 581 3500 
L 1159 3500 
L 1159 2956 
Q 1356 3278 1631 3431 
Q 1906 3584 2284 3584 
Q 2666 3584 2933 3390 
Q 3200 3197 3328 2828 
z
" transform="scale(0.015625)"/>
       <path id="DejaVuSans-68" d="M 3513 2113 
L 3513 0 
L 2938 0 
L 2938 2094 
Q 2938 2591 2744 2837 
Q 2550 3084 2163 3084 
Q 1697 3084 1428 2787 
Q 1159 2491 1159 1978 
L 1159 0 
L 581 0 
L 581 4863 
L 1159 4863 
L 1159 2956 
Q 1366 3272 1645 3428 
Q 1925 3584 2291 3584 
Q 2894 3584 3203 3211 
Q 3513 2838 3513 2113 
z
" transform="scale(0.015625)"/>
      </defs>
      <use xlink:href="#DejaVuSans-53"/>
      <use xlink:href="#DejaVuSans-6d" transform="translate(63.476562 0)"/>
      <use xlink:href="#DejaVuSans-6f" transform="translate(160.888672 0)"/>
      <use xlink:href="#DejaVuSans-6f" transform="translate(222.070312 0)"/>
      <use xlink:href="#DejaVuSans-74" transform="translate(283.251953 0)"/>
      <use xlink:href="#DejaVuSans-68" transform="translate(322.460938 0)"/>
      <use xlink:href="#DejaVuSans-65" transform="translate(385.839844 0)"/>
      <use xlink:href="#DejaVuSans-64" transform="translate(447.363281 0)"/>
      <use xlink:href="#DejaVuSans-20" transform="translate(510.839844 0)"/>
      <use xlink:href="#DejaVuSans-52" transform="translate(542.626953 0)"/>
      <use xlink:href="#DejaVuSans-65" transform="translate(607.609375 0)"/>
      <use xlink:href="#DejaVuSans-77" transform="translate(669.132812 0)"/>
      <use xlink:href="#DejaVuSans-61" transform="translate(750.919922 0)"/>
      <use xlink:href="#DejaVuSans-72" transform="translate(812.199219 0)"/>
      <use xlink:href="#DejaVuSans-64" transform="translate(851.5625 0)"/>
     </g>
    </g>
   </g>
  </g>
  <g id="axes_2">
   <g id="patch_8">
    <path d="M 425.23308 312.237812 
L 757.313953 312.237812 
L 757.313953 23.837812 
L 425.23308 23.837812 
z
"/>
   </g>
   <g id="matplotlib.axis_3">
    <g id="xtick_7">
     <g id="line2d_29">
      <path d="M 439.086031 312.237812 
L 439.086031 23.837812 
" clip-path="url(#p9637e21cd6)" style="fill: none; stroke: #444444; stroke-width: 0.8; stroke-linecap: square"/>
     </g>
     <g id="line2d_30">
      <g>
       <use xlink:href="#m039e3e78f8" x="439.086031" y="312.237812" style="fill: #ffffff; stroke: #ffffff; stroke-width: 0.8"/>
      </g>
     </g>
     <g id="text_19">
      <!-- 0.0 -->
      <g style="fill: #ffffff" transform="translate(431.134469 326.83625) scale(0.1 -0.1)">
       <use xlink:href="#DejaVuSans-30"/>
       <use xlink:href="#DejaVuSans-2e" transform="translate(63.623047 0)"/>
       <use xlink:href="#DejaVuSans-30" transform="translate(95.410156 0)"/>
      </g>
     </g>
    </g>
    <g id="xtick_8">
     <g id="line2d_31">
      <path d="M 499.712699 312.237812 
L 499.712699 23.837812 
" clip-path="url(#p9637e21cd6)" style="fill: none; stroke: #444444; stroke-width: 0.8; stroke-linecap: square"/>
     </g>
     <g id="line2d_32">
      <g>
       <use xlink:href="#m039e3e78f8" x="499.712699" y="312.237812" style="fill: #ffffff; stroke: #ffffff; stroke-width: 0.8"/>
      </g>
     </g>
     <g id="text_20">
      <!-- 0.2 -->
      <g style="fill: #ffffff" transform="translate(491.761136 326.83625) scale(0.1 -0.1)">
       <use xlink:href="#DejaVuSans-30"/>
       <use xlink:href="#DejaVuSans-2e" transform="translate(63.623047 0)"/>
       <use xlink:href="#DejaVuSans-32" transform="translate(95.410156 0)"/>
      </g>
     </g>
    </g>
    <g id="xtick_9">
     <g id="line2d_33">
      <path d="M 560.339366 312.237812 
L 560.339366 23.837812 
" clip-path="url(#p9637e21cd6)" style="fill: none; stroke: #444444; stroke-width: 0.8; stroke-linecap: square"/>
     </g>
     <g id="line2d_34">
      <g>
       <use xlink:href="#m039e3e78f8" x="560.339366" y="312.237812" style="fill: #ffffff; stroke: #ffffff; stroke-width: 0.8"/>
      </g>
     </g>
     <g id="text_21">
      <!-- 0.4 -->
      <g style="fill: #ffffff" transform="translate(552.387804 326.83625) scale(0.1 -0.1)">
       <use xlink:href="#DejaVuSans-30"/>
       <use xlink:href="#DejaVuSans-2e" transform="translate(63.623047 0)"/>
       <use xlink:href="#DejaVuSans-34" transform="translate(95.410156 0)"/>
      </g>
     </g>
    </g>
    <g id="xtick_10">
     <g id="line2d_35">
      <path d="M 620.966033 312.237812 
L 620.966033 23.837812 
" clip-path="url(#p9637e21cd6)" style="fill: none; stroke: #444444; stroke-width: 0.8; stroke-linecap: square"/>
     </g>
     <g id="line2d_36">
      <g>
       <use xlink:href="#m039e3e78f8" x="620.966033" y="312.237812" style="fill: #ffffff; stroke: #ffffff; stroke-width: 0.8"/>
      </g>
     </g>
     <g id="text_22">
      <!-- 0.6 -->
      <g style="fill: #ffffff" transform="translate(613.014471 326.83625) scale(0.1 -0.1)">
       <use xlink:href="#DejaVuSans-30"/>
       <use xlink:href="#DejaVuSans-2e" transform="translate(63.623047 0)"/>
       <use xlink:href="#DejaVuSans-36" transform="translate(95.410156 0)"/>
      </g>
     </g>
    </g>
    <g id="xtick_11">
     <g id="line2d_37">
      <path d="M 681.592701 312.237812 
L 681.592701 23.837812 
" clip-path="url(#p9637e21cd6)" style="fill: none; stroke: #444444; stroke-width: 0.8; stroke-linecap: square"/>
     </g>
     <g id="line2d_38">
      <g>
       <use xlink:href="#m039e3e78f8" x="681.592701" y="312.237812" style="fill: #ffffff; stroke: #ffffff; stroke-width: 0.8"/>
      </g>
     </g>
     <g id="text_23">
      <!-- 0.8 -->
      <g style="fill: #ffffff" transform="translate(673.641138 326.83625) scale(0.1 -0.1)">
       <use xlink:href="#DejaVuSans-30"/>
       <use xlink:href="#DejaVuSans-2e" transform="translate(63.623047 0)"/>
       <use xlink:href="#DejaVuSans-38" transform="translate(95.410156 0)"/>
      </g>
     </g>
    </g>
    <g id="xtick_12">
     <g id="line2d_39">
      <path d="M 742.219368 312.237812 
L 742.219368 23.837812 
" clip-path="url(#p9637e21cd6)" style="fill: none; stroke: #444444; stroke-width: 0.8; stroke-linecap: square"/>
     </g>
     <g id="line2d_40">
      <g>
       <use xlink:href="#m039e3e78f8" x="742.219368" y="312.237812" style="fill: #ffffff; stroke: #ffffff; stroke-width: 0.8"/>
      </g>
     </g>
     <g id="text_24">
      <!-- 1.0 -->
      <g style="fill: #ffffff" transform="translate(734.267806 326.83625) scale(0.1 -0.1)">
       <use xlink:href="#DejaVuSans-31"/>
       <use xlink:href="#DejaVuSans-2e" transform="translate(63.623047 0)"/>
       <use xlink:href="#DejaVuSans-30" transform="translate(95.410156 0)"/>
      </g>
     </g>
    </g>
    <g id="text_25">
     <!-- Training Update -->
     <g style="fill: #ffffff" transform="translate(543.965392 342.034062) scale(0.12 -0.12)">
      <use xlink:href="#DejaVuSans-54"/>
      <use xlink:href="#DejaVuSans-72" transform="translate(46.333984 0)"/>
      <use xlink:href="#DejaVuSans-61" transform="translate(87.447266 0)"/>
      <use xlink:href="#DejaVuSans-69" transform="translate(148.726562 0)"/>
      <use xlink:href="#DejaVuSans-6e" transform="translate(176.509766 0)"/>
      <use xlink:href="#DejaVuSans-69" transform="translate(239.888672 0)"/>
      <use xlink:href="#DejaVuSans-6e" transform="translate(267.671875 0)"/>
      <use xlink:href="#DejaVuSans-67" transform="translate(331.050781 0)"/>
      <use xlink:href="#DejaVuSans-20" transform="translate(394.527344 0)"/>
      <use xlink:href="#DejaVuSans-55" transform="translate(426.314453 0)"/>
      <use xlink:href="#DejaVuSans-70" transform="translate(499.507812 0)"/>
      <use xlink:href="#DejaVuSans-64" transform="translate(562.984375 0)"/>
      <use xlink:href="#DejaVuSans-61" transform="translate(626.460938 0)"/>
      <use xlink:href="#DejaVuSans-74" transform="translate(687.740234 0)"/>
      <use xlink:href="#DejaVuSans-65" transform="translate(726.949219 0)"/>
     </g>
    </g>
    <g id="text_26">
     <!-- 1e6 -->
     <g style="fill: #ffffff" transform="translate(738.435828 339.514375) scale(0.1 -0.1)">
      <use xlink:href="#DejaVuSans-31"/>
      <use xlink:href="#DejaVuSans-65" transform="translate(63.623047 0)"/>
      <use xlink:href="#DejaVuSans-36" transform="translate(125.146484 0)"/>
     </g>
    </g>
   </g>
   <g id="matplotlib.axis_4">
    <g id="ytick_7">
     <g id="line2d_41">
      <path d="M 425.23308 298.444936 
L 757.313953 298.444936 
" clip-path="url(#p9637e21cd6)" style="fill: none; stroke: #444444; stroke-width: 0.8; stroke-linecap: square"/>
     </g>
     <g id="line2d_42">
      <g>
       <use xlink:href="#m851ce0a499" x="425.23308" y="298.444936" style="fill: #ffffff; stroke: #ffffff; stroke-width: 0.8"/>
      </g>
     </g>
     <g id="text_27">
      <!-- 0 -->
      <g style="fill: #ffffff" transform="translate(411.87058 302.244154) scale(0.1 -0.1)">
       <use xlink:href="#DejaVuSans-30"/>
      </g>
     </g>
    </g>
    <g id="ytick_8">
     <g id="line2d_43">
      <path d="M 425.23308 237.758598 
L 757.313953 237.758598 
" clip-path="url(#p9637e21cd6)" style="fill: none; stroke: #444444; stroke-width: 0.8; stroke-linecap: square"/>
     </g>
     <g id="line2d_44">
      <g>
       <use xlink:href="#m851ce0a499" x="425.23308" y="237.758598" style="fill: #ffffff; stroke: #ffffff; stroke-width: 0.8"/>
      </g>
     </g>
     <g id="text_28">
      <!-- 10 -->
      <g style="fill: #ffffff" transform="translate(405.50808 241.557817) scale(0.1 -0.1)">
       <use xlink:href="#DejaVuSans-31"/>
       <use xlink:href="#DejaVuSans-30" transform="translate(63.623047 0)"/>
      </g>
     </g>
    </g>
    <g id="ytick_9">
     <g id="line2d_45">
      <path d="M 425.23308 177.07226 
L 757.313953 177.07226 
" clip-path="url(#p9637e21cd6)" style="fill: none; stroke: #444444; stroke-width: 0.8; stroke-linecap: square"/>
     </g>
     <g id="line2d_46">
      <g>
       <use xlink:href="#m851ce0a499" x="425.23308" y="177.07226" style="fill: #ffffff; stroke: #ffffff; stroke-width: 0.8"/>
      </g>
     </g>
     <g id="text_29">
      <!-- 20 -->
      <g style="fill: #ffffff" transform="translate(405.50808 180.871479) scale(0.1 -0.1)">
       <use xlink:href="#DejaVuSans-32"/>
       <use xlink:href="#DejaVuSans-30" transform="translate(63.623047 0)"/>
      </g>
     </g>
    </g>
    <g id="ytick_10">
     <g id="line2d_47">
      <path d="M 425.23308 116.385922 
L 757.313953 116.385922 
" clip-path="url(#p9637e21cd6)" style="fill: none; stroke: #444444; stroke-width: 0.8; stroke-linecap: square"/>
     </g>
     <g id="line2d_48">
      <g>
       <use xlink:href="#m851ce0a499" x="425.23308" y="116.385922" style="fill: #ffffff; stroke: #ffffff; stroke-width: 0.8"/>
      </g>
     </g>
     <g id="text_30">
      <!-- 30 -->
      <g style="fill: #ffffff" transform="translate(405.50808 120.185141) scale(0.1 -0.1)">
       <use xlink:href="#DejaVuSans-33"/>
       <use xlink:href="#DejaVuSans-30" transform="translate(63.623047 0)"/>
      </g>
     </g>
    </g>
    <g id="ytick_11">
     <g id="line2d_49">
      <path d="M 425.23308 55.699585 
L 757.313953 55.699585 
" clip-path="url(#p9637e21cd6)" style="fill: none; stroke: #444444; stroke-width: 0.8; stroke-linecap: square"/>
     </g>
     <g id="line2d_50">
      <g>
       <use xlink:href="#m851ce0a499" x="425.23308" y="55.699585" style="fill: #ffffff; stroke: #ffffff; stroke-width: 0.8"/>
      </g>
     </g>
     <g id="text_31">
      <!-- 40 -->
      <g style="fill: #ffffff" transform="translate(405.50808 59.498803) scale(0.1 -0.1)">
       <use xlink:href="#DejaVuSans-34"/>
       <use xlink:href="#DejaVuSans-30" transform="translate(63.623047 0)"/>
      </g>
     </g>
    </g>
    <g id="text_32">
     <!-- Loss -->
     <g style="fill: #ffffff" transform="translate(399.012455 181.198437) rotate(-90) scale(0.12 -0.12)">
      <defs>
       <path id="DejaVuSans-4c" d="M 628 4666 
L 1259 4666 
L 1259 531 
L 3531 531 
L 3531 0 
L 628 0 
L 628 4666 
z
" transform="scale(0.015625)"/>
      </defs>
      <use xlink:href="#DejaVuSans-4c"/>
      <use xlink:href="#DejaVuSans-6f" transform="translate(53.962891 0)"/>
      <use xlink:href="#DejaVuSans-73" transform="translate(115.144531 0)"/>
      <use xlink:href="#DejaVuSans-73" transform="translate(167.244141 0)"/>
     </g>
    </g>
   </g>
   <g id="line2d_51">
    <path d="M 440.327665 298.423046 
L 441.5693 298.174342 
L 444.052568 298.350026 
L 445.294202 298.815214 
L 446.535836 298.461112 
L 447.77747 298.709828 
L 450.260739 298.411019 
L 451.502373 298.50085 
L 452.744007 298.08879 
L 453.985641 298.543006 
L 455.227275 298.371098 
L 456.468909 298.378487 
L 457.710544 298.536646 
L 458.952178 298.479381 
L 460.193812 298.750404 
L 461.435446 298.371282 
L 462.67708 298.922164 
L 463.918714 298.321692 
L 465.160348 298.657347 
L 466.401983 298.851949 
L 467.643617 298.178276 
L 470.126885 298.700456 
L 471.368519 298.06588 
L 472.610153 298.576706 
L 475.093422 298.225212 
L 476.335056 298.558621 
L 477.57669 298.555299 
L 478.818324 298.012688 
L 480.059958 298.375313 
L 481.301592 298.256321 
L 482.543227 298.700316 
L 483.784861 298.091694 
L 485.026495 298.454343 
L 486.268129 298.575129 
L 487.509763 298.094014 
L 488.751397 298.4438 
L 491.234666 298.383158 
L 492.4763 298.627974 
L 494.959568 298.728545 
L 496.201202 298.034877 
L 498.68447 298.541593 
L 501.167739 298.522315 
L 503.651007 298.713161 
L 504.892641 298.578472 
L 507.375909 298.655758 
L 508.617544 298.465364 
L 511.100812 298.65721 
L 512.342446 298.419049 
L 513.58408 298.739129 
L 514.825714 298.674878 
L 516.067349 298.0417 
L 517.308983 298.451984 
L 518.550617 298.353546 
L 519.792251 298.669825 
L 521.033885 297.91517 
L 522.275519 298.947596 
L 523.517153 298.60355 
L 530.966958 298.621674 
L 532.208592 298.839611 
L 533.450227 298.235584 
L 534.691861 298.595347 
L 535.933495 298.515065 
L 537.175129 298.920814 
L 538.416763 298.35123 
L 539.658397 298.00177 
L 540.900031 298.997303 
L 542.141666 298.609442 
L 543.3833 298.604569 
L 544.624934 298.941986 
L 545.866568 298.661848 
L 547.108202 298.692737 
L 548.349836 298.025576 
L 549.591471 298.858544 
L 550.833105 298.680148 
L 552.074739 298.208942 
L 553.316373 298.693617 
L 554.558007 298.481992 
L 555.799641 298.857861 
L 557.041275 298.380323 
L 558.28291 298.564453 
L 559.524544 298.102202 
L 560.766178 298.909676 
L 563.249446 298.382966 
L 564.49108 298.433065 
L 565.732714 298.304452 
L 566.974349 298.615977 
L 569.457617 298.423287 
L 574.424153 298.624312 
L 575.665788 298.886597 
L 576.907422 298.696369 
L 578.149056 298.768033 
L 579.39069 298.704248 
L 580.632324 298.902207 
L 584.357227 298.336558 
L 586.840495 298.683106 
L 589.323763 298.270783 
L 590.565397 298.627633 
L 591.807032 298.766599 
L 594.2903 298.271357 
L 595.531934 298.483379 
L 596.773568 298.924685 
L 598.015202 298.450059 
L 599.256836 298.264428 
L 600.498471 298.800287 
L 601.740105 298.705386 
L 602.981739 298.913934 
L 604.223373 298.900461 
L 606.706641 298.678991 
L 607.948275 298.754965 
L 609.18991 298.594423 
L 610.431544 299.128722 
L 612.914812 298.161646 
L 614.156446 298.466472 
L 615.39808 298.938533 
L 616.639714 298.475553 
L 617.881349 298.467228 
L 619.122983 298.297551 
L 620.364617 297.991138 
L 621.606251 298.295923 
L 622.847885 298.766657 
L 624.089519 298.56217 
L 625.331154 298.825249 
L 627.814422 298.379287 
L 629.056056 298.371201 
L 630.29769 299.094144 
L 631.539324 298.551184 
L 632.780958 299.009639 
L 635.264227 298.575373 
L 636.505861 298.741461 
L 637.747495 298.51974 
L 638.989129 298.467318 
L 640.230763 298.246649 
L 641.472397 298.758356 
L 642.714032 298.767426 
L 643.955666 298.441049 
L 646.438934 298.408175 
L 648.922202 299.103638 
L 650.163836 298.989268 
L 651.405471 298.636241 
L 652.647105 298.472154 
L 653.888739 298.838556 
L 655.130373 298.493356 
L 656.372007 298.621327 
L 657.613641 298.438496 
L 660.09691 298.706534 
L 661.338544 298.123221 
L 662.580178 298.594179 
L 663.821812 298.626515 
L 665.063446 298.207402 
L 666.30508 298.953149 
L 667.546715 298.846146 
L 668.788349 298.954085 
L 670.029983 298.455605 
L 671.271617 298.937065 
L 672.513251 299.072016 
L 673.754885 299.054409 
L 674.996519 298.422956 
L 677.479788 298.342244 
L 678.721422 298.797951 
L 679.963056 298.244744 
L 681.20469 298.748232 
L 682.446324 298.791982 
L 683.687958 297.859682 
L 686.171227 298.482021 
L 687.412861 298.399357 
L 688.654495 298.059404 
L 689.896129 298.649968 
L 691.137763 298.646043 
L 693.621032 298.427269 
L 694.862666 298.507066 
L 696.1043 298.748163 
L 697.345934 298.70194 
L 698.587568 298.350716 
L 699.829202 298.29768 
L 701.070837 298.689066 
L 702.312471 298.466316 
L 703.554105 298.855895 
L 704.795739 298.460658 
L 706.037373 298.538083 
L 707.279007 299.036871 
L 708.520641 298.316013 
L 709.762276 298.781489 
L 711.00391 298.494296 
L 712.245544 298.346963 
L 713.487178 298.639848 
L 715.970446 298.847333 
L 717.21208 298.401512 
L 718.453715 298.270682 
L 719.695349 298.958544 
L 720.936983 298.662064 
L 723.420251 298.891625 
L 724.661885 298.497757 
L 725.90352 298.522674 
L 727.145154 298.785559 
L 729.628422 298.639839 
L 730.870056 298.445002 
L 732.11169 298.387524 
L 733.353324 298.528777 
L 734.594959 298.248947 
L 735.836593 298.197277 
L 737.078227 298.62996 
L 738.319861 298.072263 
L 739.561495 298.492662 
L 740.803129 298.598935 
L 742.044763 299.115301 
L 742.219368 298.487634 
L 742.219368 298.487634 
" clip-path="url(#p9637e21cd6)" style="fill: none; stroke: #ff6f69; stroke-width: 2; stroke-linecap: square"/>
   </g>
   <g id="line2d_52">
    <path d="M 440.327665 36.946903 
L 441.5693 263.396761 
L 442.810934 267.75689 
L 444.052568 122.104574 
L 445.294202 138.743255 
L 446.535836 220.91468 
L 447.77747 281.57034 
L 449.019105 154.977691 
L 450.260739 207.57532 
L 451.502373 244.665343 
L 452.744007 256.853511 
L 453.985641 209.543869 
L 455.227275 169.059154 
L 456.468909 149.799094 
L 457.710544 159.223992 
L 458.952178 245.710438 
L 460.193812 267.656187 
L 461.435446 198.216522 
L 462.67708 255.270841 
L 463.918714 181.4956 
L 465.160348 94.749955 
L 466.401983 137.722769 
L 467.643617 110.338922 
L 468.885251 145.155736 
L 470.126885 83.307789 
L 471.368519 124.67603 
L 472.610153 200.833768 
L 473.851787 194.781108 
L 475.093422 99.227744 
L 476.335056 175.894365 
L 477.57669 169.608318 
L 478.818324 216.074571 
L 480.059958 101.902865 
L 481.301592 198.130751 
L 482.543227 78.644245 
L 483.784861 227.466721 
L 485.026495 114.478814 
L 486.268129 230.102152 
L 487.509763 177.348011 
L 488.751397 192.273176 
L 489.993031 119.950166 
L 491.234666 223.273585 
L 492.4763 189.04808 
L 493.717934 216.816146 
L 494.959568 218.310219 
L 496.201202 247.335006 
L 497.442836 248.281205 
L 498.68447 263.114805 
L 499.926105 250.102152 
L 501.167739 262.15643 
L 502.409373 269.609911 
L 503.651007 271.03436 
L 504.892641 276.600724 
L 506.134275 242.59516 
L 507.375909 271.983495 
L 508.617544 189.148782 
L 509.859178 267.461753 
L 511.100812 262.028028 
L 512.342446 259.357346 
L 513.58408 122.992053 
L 514.825714 142.021631 
L 516.067349 267.241264 
L 517.308983 236.247956 
L 518.550617 158.518947 
L 519.792251 180.220336 
L 521.033885 187.184574 
L 522.275519 242.169472 
L 523.517153 263.322003 
L 524.758788 191.582773 
L 526.000422 258.407927 
L 527.242056 231.993576 
L 528.48369 261.49383 
L 529.725324 268.3185 
L 530.966958 268.397624 
L 532.208592 279.436936 
L 533.450227 272.910878 
L 534.691861 273.898845 
L 535.933495 271.653113 
L 537.175129 263.826864 
L 538.416763 278.736122 
L 539.658397 265.167672 
L 540.900031 278.913739 
L 542.141666 280.066193 
L 543.3833 266.210244 
L 544.624934 289.303131 
L 545.866568 278.332313 
L 547.108202 287.152969 
L 548.349836 258.059155 
L 549.591471 282.703886 
L 550.833105 263.548671 
L 552.074739 104.208605 
L 553.316373 175.908602 
L 554.558007 111.089515 
L 555.799641 222.19215 
L 557.041275 266.945734 
L 558.28291 265.986751 
L 559.524544 259.418184 
L 560.766178 274.170645 
L 562.007812 278.042477 
L 563.249446 239.83903 
L 564.49108 268.463789 
L 565.732714 261.670477 
L 566.974349 283.511175 
L 568.215983 264.403609 
L 569.457617 286.062499 
L 570.699251 276.632736 
L 571.940885 288.236438 
L 573.182519 244.881969 
L 574.424153 290.975324 
L 575.665788 284.865118 
L 576.907422 290.662794 
L 578.149056 262.514201 
L 579.39069 291.582983 
L 580.632324 285.931088 
L 581.873958 292.865004 
L 583.115593 271.902172 
L 584.357227 290.00915 
L 585.598861 276.51742 
L 586.840495 292.15219 
L 588.082129 275.723692 
L 589.323763 291.111491 
L 590.565397 275.479799 
L 591.807032 282.257957 
L 593.048666 274.69952 
L 594.2903 289.816407 
L 595.531934 279.86402 
L 596.773568 245.502574 
L 598.015202 291.314608 
L 599.256836 191.919281 
L 600.498471 289.206162 
L 601.740105 228.960718 
L 602.981739 286.586212 
L 604.223373 262.593412 
L 605.465007 285.181208 
L 606.706641 268.07627 
L 607.948275 289.803787 
L 609.18991 259.833883 
L 610.431544 292.604361 
L 611.673178 264.534699 
L 612.914812 292.833391 
L 614.156446 257.189146 
L 615.39808 292.008167 
L 616.639714 269.716204 
L 617.881349 290.592648 
L 619.122983 278.46042 
L 620.364617 290.015099 
L 621.606251 114.170676 
L 622.847885 82.264534 
L 624.089519 103.580569 
L 625.331154 90.419817 
L 626.572788 123.647672 
L 627.814422 99.879601 
L 629.056056 134.805776 
L 630.29769 235.218638 
L 631.539324 255.404009 
L 632.780958 255.409151 
L 634.022593 230.926298 
L 635.264227 270.83654 
L 636.505861 261.312181 
L 637.747495 271.212832 
L 638.989129 236.309726 
L 640.230763 238.939398 
L 642.714032 113.275697 
L 643.955666 236.53997 
L 645.1973 214.091669 
L 646.438934 258.07095 
L 648.922202 247.153545 
L 650.163836 248.661797 
L 651.405471 274.343389 
L 653.888739 220.373387 
L 655.130373 264.399239 
L 656.372007 164.050234 
L 657.613641 127.664927 
L 658.855276 244.693846 
L 660.09691 264.442678 
L 661.338544 264.968052 
L 662.580178 278.293751 
L 663.821812 266.449968 
L 665.063446 243.249535 
L 666.30508 284.54425 
L 667.546715 263.708661 
L 668.788349 269.519513 
L 670.029983 252.592221 
L 671.271617 273.766031 
L 672.513251 267.686343 
L 673.754885 286.139648 
L 674.996519 254.153391 
L 676.238154 286.190976 
L 677.479788 259.770058 
L 678.721422 290.008414 
L 679.963056 261.068559 
L 681.20469 287.742632 
L 682.446324 260.818209 
L 683.687958 289.580704 
L 684.929593 264.585143 
L 686.171227 289.655262 
L 687.412861 259.878614 
L 688.654495 186.762133 
L 689.896129 274.263203 
L 691.137763 249.49853 
L 692.379398 267.820312 
L 693.621032 236.560522 
L 694.862666 274.03598 
L 696.1043 260.22754 
L 697.345934 279.533196 
L 698.587568 272.733315 
L 699.829202 235.016752 
L 701.070837 273.364844 
L 702.312471 287.205357 
L 703.554105 277.734858 
L 704.795739 242.071941 
L 706.037373 277.231901 
L 707.279007 283.633274 
L 708.520641 281.78622 
L 709.762276 287.789293 
L 711.00391 280.699347 
L 712.245544 286.159004 
L 713.487178 281.726422 
L 714.728812 289.54219 
L 715.970446 283.625729 
L 717.21208 289.56612 
L 718.453715 183.815554 
L 719.695349 287.463416 
L 720.936983 156.032347 
L 722.178617 278.786882 
L 723.420251 170.8674 
L 724.661885 252.252478 
L 725.90352 144.534795 
L 728.386788 175.413574 
L 729.628422 263.468948 
L 730.870056 138.112279 
L 732.11169 152.644078 
L 733.353324 170.672269 
L 734.594959 241.577225 
L 735.836593 214.934723 
L 737.078227 232.126284 
L 738.319861 202.323488 
L 739.561495 213.006889 
L 740.803129 235.560552 
L 742.044763 192.3844 
L 742.219368 276.527071 
L 742.219368 276.527071 
" clip-path="url(#p9637e21cd6)" style="fill: none; stroke: #ffcc5c; stroke-width: 2; stroke-linecap: square"/>
   </g>
   <g id="patch_9">
    <path d="M 425.23308 312.237812 
L 425.23308 23.837812 
" style="fill: none; stroke: #ffffff; stroke-width: 0.8; stroke-linejoin: miter; stroke-linecap: square"/>
   </g>
   <g id="patch_10">
    <path d="M 757.313953 312.237812 
L 757.313953 23.837812 
" style="fill: none; stroke: #ffffff; stroke-width: 0.8; stroke-linejoin: miter; stroke-linecap: square"/>
   </g>
   <g id="patch_11">
    <path d="M 425.23308 312.237812 
L 757.313953 312.237812 
" style="fill: none; stroke: #ffffff; stroke-width: 0.8; stroke-linejoin: miter; stroke-linecap: square"/>
   </g>
   <g id="patch_12">
    <path d="M 425.23308 23.837812 
L 757.313953 23.837812 
" style="fill: none; stroke: #ffffff; stroke-width: 0.8; stroke-linejoin: miter; stroke-linecap: square"/>
   </g>
   <g id="text_33">
    <!-- Loss Curves -->
    <g style="fill: #ffffff" transform="translate(549.396017 17.837812) scale(0.14 -0.14)">
     <defs>
      <path id="DejaVuSans-43" d="M 4122 4306 
L 4122 3641 
Q 3803 3938 3442 4084 
Q 3081 4231 2675 4231 
Q 1875 4231 1450 3742 
Q 1025 3253 1025 2328 
Q 1025 1406 1450 917 
Q 1875 428 2675 428 
Q 3081 428 3442 575 
Q 3803 722 4122 1019 
L 4122 359 
Q 3791 134 3420 21 
Q 3050 -91 2638 -91 
Q 1578 -91 968 557 
Q 359 1206 359 2328 
Q 359 3453 968 4101 
Q 1578 4750 2638 4750 
Q 3056 4750 3426 4639 
Q 3797 4528 4122 4306 
z
" transform="scale(0.015625)"/>
      <path id="DejaVuSans-75" d="M 544 1381 
L 544 3500 
L 1119 3500 
L 1119 1403 
Q 1119 906 1312 657 
Q 1506 409 1894 409 
Q 2359 409 2629 706 
Q 2900 1003 2900 1516 
L 2900 3500 
L 3475 3500 
L 3475 0 
L 2900 0 
L 2900 538 
Q 2691 219 2414 64 
Q 2138 -91 1772 -91 
Q 1169 -91 856 284 
Q 544 659 544 1381 
z
M 1991 3584 
L 1991 3584 
z
" transform="scale(0.015625)"/>
      <path id="DejaVuSans-76" d="M 191 3500 
L 800 3500 
L 1894 563 
L 2988 3500 
L 3597 3500 
L 2284 0 
L 1503 0 
L 191 3500 
z
" transform="scale(0.015625)"/>
     </defs>
     <use xlink:href="#DejaVuSans-4c"/>
     <use xlink:href="#DejaVuSans-6f" transform="translate(53.962891 0)"/>
     <use xlink:href="#DejaVuSans-73" transform="translate(115.144531 0)"/>
     <use xlink:href="#DejaVuSans-73" transform="translate(167.244141 0)"/>
     <use xlink:href="#DejaVuSans-20" transform="translate(219.34375 0)"/>
     <use xlink:href="#DejaVuSans-43" transform="translate(251.130859 0)"/>
     <use xlink:href="#DejaVuSans-75" transform="translate(320.955078 0)"/>
     <use xlink:href="#DejaVuSans-72" transform="translate(384.333984 0)"/>
     <use xlink:href="#DejaVuSans-76" transform="translate(425.447266 0)"/>
     <use xlink:href="#DejaVuSans-65" transform="translate(484.626953 0)"/>
     <use xlink:href="#DejaVuSans-73" transform="translate(546.150391 0)"/>
    </g>
   </g>
   <g id="legend_2">
    <g id="patch_13">
     <path d="M 664.442078 61.194062 
L 750.313953 61.194062 
Q 752.313953 61.194062 752.313953 59.194062 
L 752.313953 30.837812 
Q 752.313953 28.837812 750.313953 28.837812 
L 664.442078 28.837812 
Q 662.442078 28.837812 662.442078 30.837812 
L 662.442078 59.194062 
Q 662.442078 61.194062 664.442078 61.194062 
z
" style="opacity: 0.8; stroke: #cccccc; stroke-linejoin: miter"/>
    </g>
    <g id="line2d_53">
     <path d="M 666.442078 36.93625 
L 676.442078 36.93625 
L 686.442078 36.93625 
" style="fill: none; stroke: #ff6f69; stroke-width: 2; stroke-linecap: square"/>
    </g>
    <g id="text_34">
     <!-- Policy Loss -->
     <g style="fill: #ffffff" transform="translate(694.442078 40.43625) scale(0.1 -0.1)">
      <defs>
       <path id="DejaVuSans-50" d="M 1259 4147 
L 1259 2394 
L 2053 2394 
Q 2494 2394 2734 2622 
Q 2975 2850 2975 3272 
Q 2975 3691 2734 3919 
Q 2494 4147 2053 4147 
L 1259 4147 
z
M 628 4666 
L 2053 4666 
Q 2838 4666 3239 4311 
Q 3641 3956 3641 3272 
Q 3641 2581 3239 2228 
Q 2838 1875 2053 1875 
L 1259 1875 
L 1259 0 
L 628 0 
L 628 4666 
z
" transform="scale(0.015625)"/>
       <path id="DejaVuSans-6c" d="M 603 4863 
L 1178 4863 
L 1178 0 
L 603 0 
L 603 4863 
z
" transform="scale(0.015625)"/>
       <path id="DejaVuSans-79" d="M 2059 -325 
Q 1816 -950 1584 -1140 
Q 1353 -1331 966 -1331 
L 506 -1331 
L 506 -850 
L 844 -850 
Q 1081 -850 1212 -737 
Q 1344 -625 1503 -206 
L 1606 56 
L 191 3500 
L 800 3500 
L 1894 763 
L 2988 3500 
L 3597 3500 
L 2059 -325 
z
" transform="scale(0.015625)"/>
      </defs>
      <use xlink:href="#DejaVuSans-50"/>
      <use xlink:href="#DejaVuSans-6f" transform="translate(56.677734 0)"/>
      <use xlink:href="#DejaVuSans-6c" transform="translate(117.859375 0)"/>
      <use xlink:href="#DejaVuSans-69" transform="translate(145.642578 0)"/>
      <use xlink:href="#DejaVuSans-63" transform="translate(173.425781 0)"/>
      <use xlink:href="#DejaVuSans-79" transform="translate(228.40625 0)"/>
      <use xlink:href="#DejaVuSans-20" transform="translate(287.585938 0)"/>
      <use xlink:href="#DejaVuSans-4c" transform="translate(319.373047 0)"/>
      <use xlink:href="#DejaVuSans-6f" transform="translate(373.335938 0)"/>
      <use xlink:href="#DejaVuSans-73" transform="translate(434.517578 0)"/>
      <use xlink:href="#DejaVuSans-73" transform="translate(486.617188 0)"/>
     </g>
    </g>
    <g id="line2d_54">
     <path d="M 666.442078 51.614375 
L 676.442078 51.614375 
L 686.442078 51.614375 
" style="fill: none; stroke: #ffcc5c; stroke-width: 2; stroke-linecap: square"/>
    </g>
    <g id="text_35">
     <!-- Value Loss -->
     <g style="fill: #ffffff" transform="translate(694.442078 55.114375) scale(0.1 -0.1)">
      <defs>
       <path id="DejaVuSans-56" d="M 1831 0 
L 50 4666 
L 709 4666 
L 2188 738 
L 3669 4666 
L 4325 4666 
L 2547 0 
L 1831 0 
z
" transform="scale(0.015625)"/>
      </defs>
      <use xlink:href="#DejaVuSans-56"/>
      <use xlink:href="#DejaVuSans-61" transform="translate(60.658203 0)"/>
      <use xlink:href="#DejaVuSans-6c" transform="translate(121.9375 0)"/>
      <use xlink:href="#DejaVuSans-75" transform="translate(149.720703 0)"/>
      <use xlink:href="#DejaVuSans-65" transform="translate(213.099609 0)"/>
      <use xlink:href="#DejaVuSans-20" transform="translate(274.623047 0)"/>
      <use xlink:href="#DejaVuSans-4c" transform="translate(306.410156 0)"/>
      <use xlink:href="#DejaVuSans-6f" transform="translate(360.373047 0)"/>
      <use xlink:href="#DejaVuSans-73" transform="translate(421.554688 0)"/>
      <use xlink:href="#DejaVuSans-73" transform="translate(473.654297 0)"/>
     </g>
    </g>
   </g>
  </g>
 </g>
 <defs>
  <clipPath id="p4a72709b1b">
   <rect x="44.555937" y="23.837812" width="332.080873" height="288.4"/>
  </clipPath>
  <clipPath id="p9637e21cd6">
   <rect x="425.23308" y="23.837812" width="332.080873" height="288.4"/>
  </clipPath>
 </defs>
</svg>
